<?xml version="1.0" encoding="UTF-8"?>
<svg xmlns="http://www.w3.org/2000/svg" xmlns:xlink="http://www.w3.org/1999/xlink" width="137.88pt" height="159.19pt" viewBox="0 0 137.88 159.19" version="1.2">
<defs>
<clipPath id="clip1">
  <path d="M 0.289062 79 L 137.472656 79 L 137.472656 80 L 0.289062 80 Z M 0.289062 79 "/>
</clipPath>
<clipPath id="clip2">
  <path d="M 119 0 L 120 0 L 120 158.382812 L 119 158.382812 Z M 119 0 "/>
</clipPath>
</defs>
<g id="surface1">
<g clip-path="url(#clip1)" clip-rule="nonzero">
<path style="fill:none;stroke-width:2.5;stroke-linecap:round;stroke-linejoin:round;stroke:rgb(0%,0%,0%);stroke-opacity:1;stroke-miterlimit:10;" d="M 0.0760098 795.956473 L 1378.695898 795.956473 " transform="matrix(0.0994938,0,0,-0.0994938,0.289313,158.384101)"/>
</g>
<g clip-path="url(#clip2)" clip-rule="nonzero">
<path style="fill:none;stroke-width:2.5;stroke-linecap:round;stroke-linejoin:round;stroke:rgb(0%,0%,0%);stroke-opacity:1;stroke-miterlimit:10;" d="M 1199.978642 0.0129468 L 1199.978642 1591.860739 " transform="matrix(0.0994938,0,0,-0.0994938,0.289313,158.384101)"/>
</g>
<path style="fill:none;stroke-width:5;stroke-linecap:round;stroke-linejoin:round;stroke:rgb(100%,0%,0%);stroke-opacity:1;stroke-miterlimit:10;" d="M 32.898423 795.956473 L 32.937685 786.887122 L 33.09473 778.642258 L 33.330297 769.141033 L 33.72291 760.189465 L 34.625919 744.210133 L 35.960802 726.935178 L 37.884603 707.932728 L 40.436585 687.870224 L 46.325774 652.063955 L 54.138765 615.472461 L 63.01181 581.589993 L 88.845719 506.443941 L 122.84597 433.221691 L 160.301212 370.050324 L 211.105283 301.69647 L 264.382813 244.139462 L 373.057981 156.665375 L 435.601168 119.681268 L 505.015076 87.722602 L 573.604498 64.401413 L 612.708713 54.468315 L 648.829072 47.401288 L 680.473648 42.846982 L 698.416044 40.92318 L 715.141341 39.549036 L 724.210692 38.960117 L 732.769646 38.528243 L 740.425592 38.253414 L 748.748979 38.017847 L 753.067718 37.978585 L 757.779069 37.900063 L 762.725988 37.900063 L 767.358817 37.939324 L 775.603681 38.017847 L 780.197249 38.13563 L 784.437465 38.253414 L 792.878636 38.606766 L 800.848671 38.999378 L 815.650166 40.020171 L 831.511716 41.472837 L 848.551102 43.475162 L 878.821534 48.147252 L 906.304416 53.683089 L 967.277153 70.565431 L 1028.092845 94.318494 L 1078.386519 119.956096 L 1128.130536 151.718456 L 1205.593002 218.109247 L 1241.202965 258.626867 " transform="matrix(0.0994938,0,0,-0.0994938,0.289313,158.384101)"/>
<path style="fill:none;stroke-width:5;stroke-linecap:round;stroke-linejoin:round;stroke:rgb(100%,0%,0%);stroke-opacity:1;stroke-miterlimit:10;" d="M 1241.202965 258.626867 L 1273.907595 304.83737 L 1299.231107 350.105603 L 1317.173503 391.486972 L 1324.593882 412.531007 L 1331.307557 435.145493 L 1336.018908 454.501294 L 1340.062818 475.427546 L 1343.203719 497.335329 L 1344.381557 509.074446 L 1344.81343 514.688806 L 1345.166782 519.910553 L 1345.402349 524.739688 L 1345.637917 529.961436 L 1345.755701 534.672787 L 1345.834223 538.991526 L 1345.873485 543.585093 L 1345.834223 548.689057 L 1345.794962 551.201778 L 1345.716439 553.910805 L 1345.559394 558.818462 L 1345.323827 563.529813 L 1345.088259 567.77003 L 1344.342295 577.192732 L 1343.478548 585.751687 L 1342.497016 593.721722 L 1339.670205 611.035938 L 1335.822602 628.978334 L 1325.732458 662.428928 L 1314.26817 689.794026 L 1301.783089 712.879647 L 1289.298009 731.568007 L 1274.300207 749.903015 L 1260.166154 763.958546 L 1247.052893 774.67687 L 1233.939632 783.39287 L 1223.496137 788.928708 L 1215.133488 792.344437 L 1208.262768 794.503807 L 1205.396696 795.210509 L 1202.962498 795.642383 L 1201.980966 795.760167 L 1201.235002 795.83869 L 1200.646083 795.917212 L 1200.214209 795.917212 L 1200.096426 795.956473 L 1199.978642 795.956473 " transform="matrix(0.0994938,0,0,-0.0994938,0.289313,158.384101)"/>
<path style="fill:none;stroke-width:5;stroke-linecap:round;stroke-linejoin:round;stroke:rgb(100%,0%,0%);stroke-opacity:1;stroke-miterlimit:10;" d="M 1199.978642 795.956473 L 1200.371254 795.956473 L 1200.803128 795.995735 L 1201.352786 796.034996 L 1203.001759 796.270563 L 1205.082606 796.623915 L 1207.556065 797.173572 L 1214.701614 799.372203 L 1224.752497 803.573158 L 1235.353037 809.344563 L 1248.427037 818.217608 L 1263.424838 830.898995 L 1277.637414 845.70049 L 1304.649161 883.901696 L 1318.076512 910.363785 L 1328.991143 938.945983 L 1337.275269 969.137892 L 1340.494692 985.431315 L 1342.065142 995.128846 L 1343.24298 1004.198197 L 1344.106728 1012.050449 L 1344.852692 1020.766449 L 1345.127521 1025.045926 L 1345.402349 1029.639494 L 1345.598656 1034.547151 L 1345.755701 1039.17998 L 1345.834223 1043.53798 L 1345.873485 1048.367115 L 1345.834223 1052.921421 L 1345.755701 1057.122376 L 1345.677178 1060.969979 L 1345.520133 1065.249457 L 1345.284566 1069.685979 L 1345.048998 1073.886934 L 1344.263773 1084.212645 L 1343.282241 1093.949438 L 1340.102079 1116.328356 L 1336.215215 1136.351599 L 1330.954206 1157.984553 L 1317.409071 1199.837056 L 1301.037125 1237.999001 L 1251.253848 1320.172819 L 1214.662353 1364.223953 L 1175.715183 1402.307375 L 1088.712231 1465.871355 L 1032.333061 1495.63139 L 975.679063 1518.481444 " transform="matrix(0.0994938,0,0,-0.0994938,0.289313,158.384101)"/>
<path style="fill:none;stroke-width:5;stroke-linecap:round;stroke-linejoin:round;stroke:rgb(100%,0%,0%);stroke-opacity:1;stroke-miterlimit:10;" d="M 975.679063 1518.481444 L 945.801244 1527.982669 L 912.468434 1536.777191 L 880.234939 1543.451605 L 849.846724 1548.202217 L 836.497896 1549.85119 L 822.049752 1551.303857 L 813.726365 1552.01056 L 806.070419 1552.560217 L 798.767825 1552.992091 L 790.994095 1553.384704 L 782.984798 1553.659533 L 775.485897 1553.855839 L 770.89233 1553.934361 L 766.573591 1553.973623 L 758.44651 1553.973623 L 750.672781 1553.8951 L 743.48797 1553.738055 L 735.596457 1553.463226 L 727.233809 1553.070614 L 710.115899 1551.971298 L 693.822476 1550.518632 L 663.237955 1546.71029 L 630.297757 1541.095929 L 594.491488 1533.086632 L 530.613418 1513.809354 L 472.585275 1490.33112 L 355.704504 1423.390672 L 294.260632 1375.256367 L 240.943841 1323.902638 L 193.24141 1267.955343 L 148.758402 1203.841705 L 113.069916 1139.571022 L 85.940386 1078.12715 L 62.894026 1009.89108 L 52.960927 971.454306 L 45.383504 934.666505 L 39.926189 900.312903 L 36.274892 868.43276 L 34.900748 851.707463 L 34.272567 842.088454 L 33.801432 833.254671 L 33.40882 823.989013 L 33.09473 813.977392 L 32.937685 804.750996 L 32.898423 795.956473 " transform="matrix(0.0994938,0,0,-0.0994938,0.289313,158.384101)"/>
</g>
</svg>
